<svg xmlns="http://www.w3.org/2000/svg" xmlns:xlink="http://www.w3.org/1999/xlink" x="0px" y="0px"
	 viewBox="0 0 512 512" style="enable-background:new 0 0 512 512;" xml:space="preserve" fill="#00245c">
<g>
	<path d="M427.047,145.878C441.768,132.176,451,112.65,451,91c0-41.355-33.645-75-75-75c-41.355,0-75,33.645-75,75
		c0,21.692,9.267,41.253,24.039,54.96c-29.579,12.043-54.216,34.329-69.039,63.082c-14.823-28.753-39.46-51.038-69.039-63.082
		C201.733,132.253,211,112.692,211,91c0-41.355-33.645-75-75-75S61,49.645,61,91c0,21.65,9.232,41.176,23.953,54.878
		C35.185,165.958,0,214.473,0,271c0,8.284,6.716,15,15,15h167.509c-0.988,4.848-1.509,9.864-1.509,15
		c0,21.706,9.278,41.278,24.066,54.986C155.803,376.13,121,424.573,121,481c0,8.284,6.716,15,15,15h240c8.284,0,15-6.716,15-15
		c0-56.427-34.803-104.87-84.066-125.014C321.722,342.278,331,322.706,331,301c0-5.136-0.521-10.152-1.509-15H497
		c8.284,0,15-6.716,15-15C512,214.473,476.815,165.958,427.047,145.878z M376,46.1c24.813,0,45,20.187,45,45s-20.187,45-45,45
		s-45-20.187-45-45C331,66.287,351.187,46.1,376,46.1z M301,301.1c0,24.813-20.187,45-45,45s-45-20.187-45-45s20.187-45,45-45
		S301,276.287,301,301.1z M136,46.1c24.813,0,45,20.187,45,45s-20.187,45-45,45s-45-20.187-45-45C91,66.287,111.187,46.1,136,46.1z
			M196.04,256.101c-0.014,0.001-0.027-0.001-0.04-0.001H31.078c7.371-50.817,51.614-90,104.922-90
		c42.6,0,80.325,25.556,96.59,63.761C217.881,234.707,205.164,243.974,196.04,256.101z M359.932,466.1H152.068
		c7.3-50.817,51.126-90,103.932-90C308.806,376.1,352.631,415.283,359.932,466.1z M316,256.1c-0.013,0-0.026,0.002-0.04,0.002
		c-9.124-12.127-21.841-21.394-36.55-26.24C295.675,191.656,333.399,166.1,376,166.1c53.308,0,97.551,39.183,104.922,90H316z"/>
</g>
</svg>
