<svg viewBox="-31 0 512 512" xmlns="http://www.w3.org/2000/svg" fill="#00245c"><path d="m450 467v-422c0-24.8125-20.1875-45-45-45h-360c-24.8125 0-45 20.1875-45 45v422c0 24.8125 20.1875 45 45 45h360c24.8125 0 45-20.1875 45-45zm-30 0c0 8.269531-6.730469 15-15 15h-360c-8.269531 0-15-6.730469-15-15v-422c0-8.269531 6.730469-15 15-15h360c8.269531 0 15 6.730469 15 15zm0 0"/><path d="m375 60h-300c-8.285156 0-15 6.714844-15 15v60c0 8.285156 6.714844 15 15 15h300c8.285156 0 15-6.714844 15-15v-60c0-8.285156-6.714844-15-15-15zm-15 60h-270v-30h270zm0 0"/><path d="m375 180h-30c-8.285156 0-15 6.714844-15 15s6.714844 15 15 15h30c8.285156 0 15-6.714844 15-15s-6.714844-15-15-15zm0 0"/><path d="m285 180h-30c-8.285156 0-15 6.714844-15 15s6.714844 15 15 15h30c8.285156 0 15-6.714844 15-15s-6.714844-15-15-15zm0 0"/><path d="m135 240h-60c-8.285156 0-15 6.714844-15 15v61c0 8.285156 6.714844 15 15 15h60c8.285156 0 15-6.714844 15-15v-61c0-8.285156-6.714844-15-15-15zm-15 61h-30v-31h30zm0 0"/><path d="m255 240h-60c-8.285156 0-15 6.714844-15 15v61c0 8.285156 6.714844 15 15 15h60c8.285156 0 15-6.714844 15-15v-61c0-8.285156-6.714844-15-15-15zm-15 61h-30v-31h30zm0 0"/><path d="m135 361h-60c-8.285156 0-15 6.714844-15 15v60c0 8.285156 6.714844 15 15 15h60c8.285156 0 15-6.714844 15-15v-60c0-8.285156-6.714844-15-15-15zm-15 60h-30v-30h30zm0 0"/><path d="m255 361h-60c-8.285156 0-15 6.714844-15 15v60c0 8.285156 6.714844 15 15 15h60c8.285156 0 15-6.714844 15-15v-60c0-8.285156-6.714844-15-15-15zm-15 60h-30v-30h30zm0 0"/><path d="m375 240h-60c-8.285156 0-15 6.714844-15 15v181c0 8.285156 6.714844 15 15 15h60c8.285156 0 15-6.714844 15-15v-181c0-8.285156-6.714844-15-15-15zm-15 181h-30v-151h30zm0 0"/></svg>