<svg id="Capa_1" enable-background="new 0 0 512 512" height="512" viewBox="0 0 512 512" width="512" xmlns="http://www.w3.org/2000/svg" fill="#00245c"><g><path d="m503.805 143.26-36.65-36.65c-10.92-10.92-28.69-10.92-39.61 0-10.725 10.725-66.399 66.399-77.23 77.23v-59.84c0-24.81-20.19-45-45-45h-17.59v-14.25c0-13.79-11.22-25-25-25h-38.37c-6.32-27.44-29.11-39.75-49.2-39.75-24.07 0-43.67 15.92-49.19 39.75h-38.37c-13.79 0-25 11.21-25 25v14.25h-17.59c-24.81 0-45 20.19-45 45v343c0 24.81 20.19 45 45 45h260.31c24.81 0 45-20.19 45-45v-130.64c3.132-3.132 150.17-150.17 153.49-153.49 10.92-10.92 10.92-28.69 0-39.61zm-411.21-73.51h34.84c13.29 0 24.91-9.5 27.62-22.6 3.29-15.91 16.22-17.15 20.1-17.15 3.89 0 16.83 1.24 20.11 17.18 2.7 13.08 14.31 22.57 27.62 22.57h34.84v51.08h-165.13c0-22.341 0-28.756 0-51.08zm227.72 397.25c0 8.27-6.73 15-15 15h-260.31c-8.27 0-15-6.73-15-15v-343c0-8.27 6.73-15 15-15h17.59v16.83c0 13.79 11.21 25 25 25h175.13c13.78 0 25-11.21 25-25v-16.83h17.59c8.27 0 15 6.73 15 15v89.84l-102.17 102.17c-3.96 3.979-7.136 8.817-9.18 14.03l-39.32 79.05c-10.019 20.133 11.067 41.889 31.66 31.69h.01l79.07-39.33c5.061-2.001 9.971-5.131 14.02-9.18l25.91-25.91zm-91.01-110.5.002-.004 24.605 24.605-48.958 24.359zm50.441 8.009-33.83-33.83c103.381-103.395 83.625-83.639 158.979-158.979l33.83 33.83c-123 122.986-103.205 103.191-158.979 158.979zm180.189-180.199c-25.028-25.027-19.089-19.089-33.83-33.83l21.24-21.24 33.83 33.83z"/><path d="m93.952 227h162.412c8.284 0 15-6.716 15-15s-6.716-15-15-15h-162.412c-8.284 0-15 6.716-15 15s6.716 15 15 15z"/><path d="m177.005 290.869c0-8.284-6.716-15-15-15h-68.053c-8.284 0-15 6.716-15 15s6.716 15 15 15h68.053c8.284 0 15-6.716 15-15z"/></g></svg>