<svg id="Capa_1" enable-background="new 0 0 512 512" height="512" viewBox="0 0 512 512" width="512" xmlns="http://www.w3.org/2000/svg" fill="#00245c"><g><path d="m396.895 0h-281.79c-24.813 0-45 20.187-45 45v422c0 24.813 20.187 45 45 45h187.978c12.021 0 23.321-4.681 31.82-13.18l93.811-93.811c8.5-8.5 13.181-19.8 13.181-31.82v-328.189c0-24.813-20.187-45-45-45zm-281.79 482c-8.271 0-15-6.729-15-15v-422c0-8.271 6.729-15 15-15h281.789c8.271 0 15 6.729 15 15v323.33h-80.664c-15.45 0-28.021 12.57-28.021 28.02v85.644c-.043 0-.084.006-.127.006zm218.105-23.913v-59.757h59.757z"/><path d="m145.861 332.083h220.277c8.284 0 15-6.716 15-15s-6.716-15-15-15h-220.277c-8.284 0-15 6.716-15 15s6.716 15 15 15z"/><path d="m239.5 368.33h-93.639c-8.284 0-15 6.716-15 15s6.716 15 15 15h93.639c8.284 0 15-6.716 15-15s-6.716-15-15-15z"/><path d="m256 262c8.284 0 15-6.716 15-15v-1c0-8.284-6.716-15-15-15s-15 6.716-15 15v1c0 8.284 6.716 15 15 15z"/><path d="m256 201c8.284 0 15-6.716 15-15v-108c0-8.284-6.716-15-15-15s-15 6.716-15 15v108c0 8.284 6.716 15 15 15z"/></g></svg>