<svg id="Capa_1" enable-background="new 0 0 512 512" height="512" viewBox="0 0 512 512" width="512" xmlns="http://www.w3.org/2000/svg" fill="#00245c"><g><path d="m75.755 332.083h194.745c8.284 0 15-6.716 15-15s-6.716-15-15-15h-194.745c-8.284 0-15 6.716-15 15s6.716 15 15 15z"/><path d="m75.755 265.837h143.776c8.284 0 15-6.716 15-15s-6.716-15-15-15h-143.776c-8.284 0-15 6.716-15 15s6.716 15 15 15z"/><path d="m75.755 199.59h131.557c8.284 0 15-6.716 15-15s-6.716-15-15-15h-131.557c-8.284 0-15 6.716-15 15s6.716 15 15 15z"/><path d="m75.755 133.344h155.911c8.284 0 15-6.716 15-15s-6.716-15-15-15h-155.911c-8.284 0-15 6.716-15 15s6.716 15 15 15z"/><path d="m189.938 368.33h-114.183c-8.284 0-15 6.716-15 15s6.716 15 15 15h114.182c8.284 0 15-6.716 15-15s-6.715-15-14.999-15z"/><path d="m507.606 355.394-80.726-80.726c45.182-40.57 46.509-110.06 4.15-152.397-16.25-16.26-36.89-26.52-59.24-29.7v-47.571c0-24.81-20.19-45-45-45h-281.79c-24.81 0-45 20.19-45 45v422c0 24.81 20.19 45 45 45h187.98c12.02 0 23.32-4.68 31.82-13.18l93.81-93.81c8.5-8.5 13.18-19.8 13.18-31.82v-72.8c10.148-1.45 20.116-4.405 29.564-8.823l85.039 85.039c5.858 5.858 15.355 5.858 21.213 0 5.859-5.857 5.859-15.355 0-21.212zm-462.606 126.606c-8.27 0-15-6.73-15-15v-422c0-8.27 6.73-15 15-15h281.79c8.27 0 15 6.73 15 15v47.57c-22.36 3.17-43 13.44-59.25 29.7-41.031 41.031-41.035 107.455 0 148.49 16.65 16.65 37.56 26.53 59.25 29.63v67.94h-80.666c-15.45 0-28.02 12.569-28.02 28.02v85.65c-.002 0-.003 0-.005 0zm218.104-23.914v-59.756h59.765zm40.656-208.546c-29.309-29.288-29.323-76.758 0-106.06 29.307-29.307 76.73-29.33 106.06 0 29.309 29.288 29.323 76.758 0 106.06-29.274 29.274-76.836 29.224-106.06 0z"/><path d="m370.491 170.529-21.832 18.277-2.765-4.1c-4.631-6.869-13.953-8.684-20.822-4.053s-8.684 13.953-4.053 20.822l12.068 17.901c4.967 7.369 15.239 8.834 22.066 3.116l34.595-28.963c6.353-5.317 7.19-14.778 1.872-21.13-5.316-6.348-14.777-7.189-21.129-1.87z"/></g></svg>