<svg width="40" height="41" viewBox="0 0 40 41" fill="none" xmlns="http://www.w3.org/2000/svg">
<g clip-path="url(#clip0_6000_6053)">
<path d="M39.2308 6.26172C39.2308 4.96937 38.2198 3.91797 36.9772 3.91797H26.3477C25.9328 3.91797 25.5964 4.26773 25.5964 4.69922C25.5964 5.1307 25.9328 5.48047 26.3477 5.48047H36.9772C37.3914 5.48047 37.7284 5.83094 37.7284 6.26172V10.9541H2.27163V6.26172C2.27163 5.83094 2.60862 5.48047 3.02283 5.48047H13.884C14.2989 5.48047 14.6352 5.1307 14.6352 4.69922C14.6352 4.26773 14.2989 3.91797 13.884 3.91797H3.02283C1.78019 3.91797 0.769226 4.96937 0.769226 6.26172V11.7354C0.769226 11.7457 0.770353 11.7556 0.770728 11.7659C0.770353 11.776 0.769226 11.786 0.769226 11.7963V14.5258C0.769226 15.8584 1.43494 17.0317 2.43802 17.7072C2.4275 17.7592 2.42187 17.8131 2.42187 17.8683V38.1369H1.52043C1.10554 38.1369 0.769226 38.4866 0.769226 38.9181C0.769226 39.3496 1.10554 39.6994 1.52043 39.6994H38.4796C38.8944 39.6994 39.2308 39.3496 39.2308 38.9181C39.2308 38.4866 38.8944 38.1369 38.4796 38.1369H37.5781V17.8681C37.5781 17.8129 37.5724 17.7591 37.562 17.707C38.565 17.0316 39.2308 15.8583 39.2308 14.5256V11.7962C39.2308 11.7859 39.2296 11.7759 39.2293 11.7657C39.2296 11.7555 39.2308 11.7455 39.2308 11.7352V6.26172ZM26.911 12.5166H31.5685V14.5256C31.5685 15.753 30.6084 16.7515 29.4283 16.7515H29.0512C27.8711 16.7515 26.911 15.753 26.911 14.5256V12.5166ZM20.7511 12.5166H25.4086V14.5256C25.4086 15.753 24.4485 16.7515 23.2684 16.7515H22.8914C21.7112 16.7515 20.7511 15.753 20.7511 14.5256V12.5166ZM14.5913 12.5166H19.2488V14.5256C19.2488 15.753 18.2887 16.7515 17.1085 16.7515H16.7315C15.5514 16.7515 14.5913 15.753 14.5913 14.5256V12.5166ZM8.43141 12.5166H13.0889V14.5256C13.0889 15.753 12.1288 16.7515 10.9487 16.7515H10.5717C9.39152 16.7515 8.43141 15.753 8.43141 14.5256V12.5166ZM2.27163 14.5256V12.5166H6.92908V14.5256C6.92908 15.753 5.96897 16.7515 4.78883 16.7515H4.4118C3.23174 16.7515 2.27163 15.753 2.27163 14.5256ZM18.1971 38.1367H7.98076V22.8242H18.1971V38.1367ZM36.0757 32.5117H24.2067V22.8242H36.0757V32.5117ZM36.0762 21.2617H36.0757H23.4555C23.0406 21.2617 22.7043 21.6115 22.7043 22.043V33.293C22.7043 33.7245 23.0406 34.0742 23.4555 34.0742H36.0757V38.1367H19.6995V22.043C19.6995 21.6115 19.3632 21.2617 18.9483 21.2617H7.22956C6.81467 21.2617 6.47836 21.6115 6.47836 22.043V38.1367H3.92427V18.2791C4.0839 18.3014 4.24646 18.314 4.41188 18.314H4.78891C5.96604 18.314 7.01397 17.7298 7.68036 16.826C8.34667 17.7298 9.3946 18.314 10.5718 18.314H10.9488C12.126 18.314 13.1739 17.7298 13.8403 16.826C14.5066 17.7298 15.5545 18.314 16.7317 18.314H17.1088C18.2859 18.314 19.3338 17.7298 20.0002 16.826C20.6665 17.7298 21.7145 18.314 22.8917 18.314H23.2687C24.4458 18.314 25.4938 17.7298 26.1601 16.826C26.8265 17.7298 27.8744 18.314 29.0516 18.314H29.4286C30.6058 18.314 31.6537 17.7298 32.3201 16.826C32.9864 17.7298 34.0343 18.314 35.2115 18.314H35.5886C35.754 18.314 35.9165 18.3014 36.0762 18.2791V21.2617ZM37.7283 14.5256C37.7284 15.753 36.7682 16.7515 35.5881 16.7515H35.2111C34.0309 16.7515 33.0708 15.753 33.0708 14.5256V12.5166H37.7283V14.5256Z" fill="#00245C"/>
<path fill-rule="evenodd" clip-rule="evenodd" d="M0.384644 6.26182C0.384644 4.74856 1.56781 3.51807 3.02286 3.51807H13.884C14.5113 3.51807 15.0199 4.04692 15.0199 4.69932C15.0199 5.35172 14.5113 5.88057 13.884 5.88057H3.02286C2.82107 5.88057 2.65628 6.05195 2.65628 6.26182V10.5542H37.3438V6.26182C37.3438 6.05195 37.179 5.88057 36.9772 5.88057H26.3477C25.7204 5.88057 25.2119 5.35172 25.2119 4.69932C25.2119 4.04692 25.7204 3.51807 26.3477 3.51807H36.9772C38.4322 3.51807 39.6154 4.74856 39.6154 6.26182V11.7353C39.6154 11.7471 39.615 11.7578 39.6146 11.7658C39.615 11.7738 39.6154 11.7845 39.6154 11.7963V14.5257C39.6154 15.9135 38.9627 17.1438 37.9628 17.9055V37.737H38.4796C39.1069 37.737 39.6154 38.2658 39.6154 38.9182C39.6154 39.5706 39.1069 40.0995 38.4796 40.0995H1.52046C0.893155 40.0995 0.384644 39.5706 0.384644 38.9182C0.384644 38.2658 0.893155 37.737 1.52046 37.737H2.03729V17.9056C1.0374 17.144 0.384644 15.9137 0.384644 14.5259V11.7964C0.384644 11.7846 0.385035 11.774 0.385439 11.766C0.385035 11.7579 0.384644 11.7473 0.384644 11.7355V6.26182ZM39.6135 11.7474C39.6135 11.7471 39.6135 11.7472 39.6135 11.7474ZM3.02286 4.31807C1.99264 4.31807 1.15387 5.19039 1.15387 6.26182V11.7278L1.15417 11.7323C1.15444 11.7367 1.15482 11.7431 1.1551 11.7507C1.15547 11.7609 1.15547 11.7711 1.15509 11.7813C1.15481 11.7889 1.15444 11.7953 1.15417 11.7996L1.15387 11.8041V14.5259C1.15387 15.7166 1.74829 16.7663 2.6471 17.3715C2.78065 17.4615 2.84717 17.6276 2.81444 17.7896C2.80924 17.8153 2.80652 17.8416 2.80652 17.8684V38.137C2.80652 38.3579 2.63432 38.537 2.4219 38.537H1.52046C1.31799 38.537 1.15387 38.7077 1.15387 38.9182C1.15387 39.1288 1.31799 39.2995 1.52046 39.2995H38.4796C38.6821 39.2995 38.8462 39.1288 38.8462 38.9182C38.8462 38.7077 38.6821 38.537 38.4796 38.537H37.5782C37.3657 38.537 37.1935 38.3579 37.1935 38.137V17.8682C37.1935 17.8418 37.1908 17.8153 37.1855 17.7889C37.153 17.6271 37.2196 17.4612 37.353 17.3714C38.2518 16.7661 38.8462 15.7164 38.8462 14.5257V11.804L38.8459 11.7994C38.8456 11.7951 38.8452 11.7886 38.845 11.7811C38.8446 11.7709 38.8446 11.7606 38.845 11.7504C38.8452 11.7429 38.8456 11.7365 38.8459 11.7322L38.8462 11.7277V6.26182C38.8462 5.19039 38.0074 4.31807 36.9772 4.31807H26.3477C26.1452 4.31807 25.9811 4.48875 25.9811 4.69932C25.9811 4.90989 26.1452 5.08057 26.3477 5.08057H36.9772C37.6038 5.08057 38.113 5.61012 38.113 6.26182V10.9542C38.113 11.1752 37.9408 11.3542 37.7284 11.3542H2.27166C2.05925 11.3542 1.88705 11.1752 1.88705 10.9542V6.26182C1.88705 5.61012 2.39623 5.08057 3.02286 5.08057H13.884C14.0865 5.08057 14.2506 4.90989 14.2506 4.69932C14.2506 4.48875 14.0865 4.31807 13.884 4.31807H3.02286ZM1.88705 12.5167C1.88705 12.2957 2.05925 12.1167 2.27166 12.1167H6.92911C7.14153 12.1167 7.31373 12.2957 7.31373 12.5167V14.5257C7.31373 15.974 6.18142 17.1516 4.78886 17.1516H4.41184C3.01935 17.1516 1.88705 15.974 1.88705 14.5257V12.5167ZM2.65628 12.9167V14.5257C2.65628 15.5322 3.4442 16.3516 4.41184 16.3516H4.78886C5.75659 16.3516 6.5445 15.5322 6.5445 14.5257V12.9167H2.65628ZM8.04683 12.5167C8.04683 12.2957 8.21903 12.1167 8.43144 12.1167H13.089C13.3014 12.1167 13.4736 12.2957 13.4736 12.5167V14.5257C13.4736 15.974 12.3413 17.1516 10.9487 17.1516H10.5717C9.17914 17.1516 8.04683 15.974 8.04683 14.5257V12.5167ZM8.81606 12.9167V14.5257C8.81606 15.5322 9.60397 16.3516 10.5717 16.3516H10.9487C11.9164 16.3516 12.7044 15.5322 12.7044 14.5257V12.9167H8.81606ZM14.2067 12.5167C14.2067 12.2957 14.3789 12.1167 14.5913 12.1167H19.2488C19.4612 12.1167 19.6334 12.2957 19.6334 12.5167V14.5257C19.6334 15.974 18.5011 17.1516 17.1086 17.1516H16.7315C15.339 17.1516 14.2067 15.974 14.2067 14.5257V12.5167ZM14.9759 12.9167V14.5257C14.9759 15.5322 15.7638 16.3516 16.7315 16.3516H17.1086C18.0763 16.3516 18.8642 15.5322 18.8642 14.5257V12.9167H14.9759ZM20.3665 12.5167C20.3665 12.2957 20.5387 12.1167 20.7512 12.1167H25.4087C25.6211 12.1167 25.7933 12.2957 25.7933 12.5167V14.5257C25.7933 15.974 24.661 17.1516 23.2684 17.1516H22.8914C21.4988 17.1516 20.3665 15.974 20.3665 14.5257V12.5167ZM21.1358 12.9167V14.5257C21.1358 15.5322 21.9237 16.3516 22.8914 16.3516H23.2684C24.2362 16.3516 25.0241 15.5322 25.0241 14.5257V12.9167H21.1358ZM26.5264 12.5167C26.5264 12.2957 26.6986 12.1167 26.911 12.1167H31.5685C31.781 12.1167 31.9532 12.2957 31.9532 12.5167V14.5257C31.9532 15.974 30.8208 17.1516 29.4283 17.1516H29.0513C27.6587 17.1516 26.5264 15.974 26.5264 14.5257V12.5167ZM27.2956 12.9167V14.5257C27.2956 15.5322 28.0835 16.3516 29.0513 16.3516H29.4283C30.396 16.3516 31.1839 15.5322 31.1839 14.5257V12.9167H27.2956ZM32.6862 12.5167C32.6862 12.2957 32.8584 12.1167 33.0709 12.1167H37.7283C37.9407 12.1167 38.1129 12.2957 38.1129 12.5167V14.5257C38.113 15.974 36.9807 17.1516 35.5881 17.1516H35.2111C33.8186 17.1516 32.6862 15.974 32.6862 14.5257V12.5167ZM33.4555 12.9167V14.5257C33.4555 15.5322 34.2434 16.3516 35.2111 16.3516H35.5881C36.5559 16.3516 37.3438 15.5322 37.3437 14.5257V12.9167H33.4555ZM7.6804 16.4261C7.80002 16.4261 7.91282 16.484 7.98561 16.5827C8.58263 17.3925 9.51988 17.9141 10.5718 17.9141H10.9489C12.0007 17.9141 12.938 17.3925 13.5351 16.5827C13.6079 16.484 13.7207 16.4261 13.8403 16.4261C13.9599 16.4261 14.0728 16.484 14.1455 16.5827C14.7426 17.3925 15.6798 17.9141 16.7318 17.9141H17.1088C18.1607 17.9141 19.0979 17.3925 19.695 16.5827C19.7678 16.484 19.8806 16.4261 20.0003 16.4261C20.1199 16.4261 20.2327 16.484 20.3055 16.5827C20.9025 17.3925 21.8397 17.9141 22.8917 17.9141H23.2687C24.3206 17.9141 25.2579 17.3925 25.855 16.5827C25.9278 16.484 26.0406 16.4261 26.1602 16.4261C26.2798 16.4261 26.3926 16.484 26.4654 16.5827C27.0624 17.3925 27.9997 17.9141 29.0516 17.9141H29.4287C30.4805 17.9141 31.4178 17.3925 32.0149 16.5827C32.0877 16.484 32.2005 16.4261 32.3201 16.4261C32.4397 16.4261 32.5525 16.484 32.6253 16.5827C33.2224 17.3925 34.1596 17.9141 35.2116 17.9141H35.5886C35.7352 17.9141 35.8806 17.9029 36.0249 17.8827C36.1349 17.8673 36.2459 17.9021 36.3294 17.978C36.4129 18.054 36.4608 18.1638 36.4608 18.2792V21.2618C36.4608 21.4827 36.2886 21.6618 36.0762 21.6618H23.4556C23.2531 21.6618 23.089 21.8325 23.089 22.0431V33.2931C23.089 33.5036 23.2531 33.6743 23.4556 33.6743H36.0757C36.2882 33.6743 36.4604 33.8534 36.4604 34.0743V38.1368C36.4604 38.3577 36.2882 38.5368 36.0757 38.5368H19.6995C19.4871 38.5368 19.3149 38.3577 19.3149 38.1368V22.0431C19.3149 21.8325 19.1508 21.6618 18.9483 21.6618H7.2296C7.02712 21.6618 6.86301 21.8325 6.86301 22.0431V38.1368C6.86301 38.3577 6.69081 38.5368 6.47839 38.5368H3.92431C3.71189 38.5368 3.53969 38.3577 3.53969 38.1368V18.2792C3.53969 18.1638 3.58761 18.054 3.67113 17.978C3.75465 17.9021 3.86565 17.8673 3.97561 17.8827C4.11993 17.9029 4.26528 17.9141 4.41191 17.9141H4.78894C5.84082 17.9141 6.77808 17.3925 7.37519 16.5827C7.44798 16.484 7.56078 16.4261 7.6804 16.4261ZM7.68038 17.4375C6.94862 18.2234 5.92332 18.7141 4.78894 18.7141H4.41191C4.37743 18.7141 4.34309 18.7136 4.30892 18.7126V37.7368H6.09378V22.0431C6.09378 21.3907 6.60229 20.8618 7.2296 20.8618H18.9483C19.5757 20.8618 20.0842 21.3907 20.0842 22.0431V37.7368H35.6911V34.4743H23.4556C22.8282 34.4743 22.3197 33.9455 22.3197 33.2931V22.0431C22.3197 21.3907 22.8282 20.8618 23.4556 20.8618H35.6916V18.7126C35.6574 18.7136 35.6231 18.7141 35.5886 18.7141H35.2116C34.0771 18.7141 33.0518 18.2234 32.3201 17.4375C31.5883 18.2234 30.563 18.7141 29.4287 18.7141H29.0516C27.9172 18.7141 26.8919 18.2234 26.1602 17.4375C25.4284 18.2234 24.4031 18.7141 23.2687 18.7141H22.8917C21.7573 18.7141 20.732 18.2234 20.0002 17.4375C19.2685 18.2234 18.2432 18.7141 17.1088 18.7141H16.7318C15.5973 18.7141 14.572 18.2234 13.8403 17.4375C13.1085 18.2234 12.0833 18.7141 10.9489 18.7141H10.5718C9.43741 18.7141 8.4121 18.2234 7.68038 17.4375ZM7.59618 22.8243C7.59618 22.6034 7.76838 22.4243 7.9808 22.4243H18.1971C18.4096 22.4243 18.5818 22.6034 18.5818 22.8243V38.1368C18.5818 38.3577 18.4096 38.5368 18.1971 38.5368H7.9808C7.76838 38.5368 7.59618 38.3577 7.59618 38.1368V22.8243ZM8.36541 23.2243V37.7368H17.8125V23.2243H8.36541ZM23.8221 22.8243C23.8221 22.6034 23.9943 22.4243 24.2068 22.4243H36.0757C36.2882 22.4243 36.4604 22.6034 36.4604 22.8243V32.5118C36.4604 32.7327 36.2882 32.9118 36.0757 32.9118H24.2068C23.9943 32.9118 23.8221 32.7327 23.8221 32.5118V22.8243ZM24.5914 23.2243V32.1118H35.6911V23.2243H24.5914Z" fill="#00245C"/>
<path d="M22.8657 3.80754H20.8694V1.73145C20.8694 1.29996 20.5331 0.950195 20.1182 0.950195C19.7033 0.950195 19.367 1.29996 19.367 1.73145V3.80754H17.3708C16.9559 3.80754 16.6196 4.15731 16.6196 4.58879C16.6196 5.02027 16.9559 5.37004 17.3708 5.37004H19.367V7.44613C19.367 7.87762 19.7033 8.22738 20.1182 8.22738C20.5331 8.22738 20.8694 7.87762 20.8694 7.44613V5.37004H22.8657C23.2806 5.37004 23.6169 5.02027 23.6169 4.58879C23.6169 4.15731 23.2806 3.80754 22.8657 3.80754Z" fill="#00245C"/>
<path fill-rule="evenodd" clip-rule="evenodd" d="M18.9824 1.73105C18.9824 1.07866 19.4909 0.549805 20.1182 0.549805C20.7456 0.549805 21.2541 1.07866 21.2541 1.73105V3.40715H22.8657C23.493 3.40715 24.0015 3.936 24.0015 4.5884C24.0015 5.2408 23.493 5.76965 22.8657 5.76965H21.2541V7.44574C21.2541 8.09814 20.7456 8.62699 20.1182 8.62699C19.4909 8.62699 18.9824 8.09814 18.9824 7.44574V5.76965H17.3708C16.7435 5.76965 16.235 5.2408 16.235 4.5884C16.235 3.936 16.7435 3.40715 17.3708 3.40715H18.9824V1.73105ZM20.1182 1.3498C19.9158 1.3498 19.7517 1.52048 19.7517 1.73105V3.80715C19.7517 4.02806 19.5795 4.20715 19.367 4.20715H17.3708C17.1683 4.20715 17.0042 4.37783 17.0042 4.5884C17.0042 4.79897 17.1683 4.96965 17.3708 4.96965H19.367C19.5795 4.96965 19.7517 5.14873 19.7517 5.36965V7.44574C19.7517 7.65631 19.9158 7.82699 20.1182 7.82699C20.3207 7.82699 20.4848 7.65631 20.4848 7.44574V5.36965C20.4848 5.14873 20.657 4.96965 20.8695 4.96965H22.8657C23.0682 4.96965 23.2323 4.79897 23.2323 4.5884C23.2323 4.37783 23.0682 4.20715 22.8657 4.20715H20.8695C20.657 4.20715 20.4848 4.02806 20.4848 3.80715V1.73105C20.4848 1.52048 20.3207 1.3498 20.1182 1.3498Z" fill="#00245C"/>
<path d="M10.8353 26.5752C10.4204 26.5752 10.0841 26.925 10.0841 27.3564V33.8668C10.0841 34.2983 10.4204 34.6481 10.8353 34.6481C11.2502 34.6481 11.5865 34.2983 11.5865 33.8668V27.3564C11.5865 26.925 11.2502 26.5752 10.8353 26.5752Z" fill="#00245C"/>
<path fill-rule="evenodd" clip-rule="evenodd" d="M9.69952 27.3561C9.69952 26.7037 10.208 26.1748 10.8353 26.1748C11.4626 26.1748 11.9712 26.7037 11.9712 27.3561V33.8664C11.9712 34.5188 11.4626 35.0477 10.8353 35.0477C10.208 35.0477 9.69952 34.5188 9.69952 33.8664V27.3561ZM10.8353 26.9748C10.6329 26.9748 10.4688 27.1455 10.4688 27.3561V33.8664C10.4688 34.077 10.6329 34.2477 10.8353 34.2477C11.0378 34.2477 11.2019 34.077 11.2019 33.8664V27.3561C11.2019 27.1455 11.0378 26.9748 10.8353 26.9748Z" fill="#00245C"/>
</g>
<defs>
<clipPath id="clip0_6000_6053">
<rect width="40" height="40" fill="white" transform="translate(0 0.5)"/>
</clipPath>
</defs>
</svg>
