<svg width="50" height="50" viewBox="0 0 50 50" fill="none" xmlns="http://www.w3.org/2000/svg">
<path d="M45.6055 5.03369H4.39453C1.97139 5.03369 0 7.00508 0 9.42822V40.572C0 42.9951 1.97139 44.9665 4.39453 44.9665H45.6055C48.0286 44.9665 50 42.9951 50 40.572V9.42822C50 7.00498 48.0286 5.03369 45.6055 5.03369V5.03369ZM47.0703 40.572C47.0703 41.3797 46.4132 42.0368 45.6055 42.0368H4.39453C3.58682 42.0368 2.92969 41.3797 2.92969 40.572V9.42822C2.92969 8.62051 3.58682 7.96338 4.39453 7.96338H45.6055C46.4132 7.96338 47.0703 8.62051 47.0703 9.42822V40.572Z" fill="#00245C"/>
<path d="M42.4807 13.6123C41.9394 13.5296 41.5036 13.0938 41.4209 12.5528C41.2739 11.5907 40.4661 10.8926 39.5 10.8926H10.5C9.53389 10.8926 8.72607 11.5907 8.5791 12.5527C8.49639 13.0938 8.06064 13.5296 7.51934 13.6123C6.55742 13.7593 5.85938 14.567 5.85938 15.5329V34.4672C5.85938 35.4331 6.55742 36.2408 7.51934 36.3878C8.06064 36.4705 8.49639 36.9062 8.5791 37.4473C8.72607 38.4094 9.53389 39.1075 10.5 39.1075H39.5C40.4661 39.1075 41.2739 38.4094 41.4209 37.4474C41.5036 36.9062 41.9394 36.4705 42.4807 36.3878C43.4426 36.2408 44.1406 35.4331 44.1406 34.4672V15.5329C44.1406 14.567 43.4426 13.7593 42.4807 13.6123ZM41.2109 33.7045C40.0626 34.1275 39.1607 35.0294 38.7377 36.1777H11.2623C10.8393 35.0295 9.9374 34.1275 8.78906 33.7045V16.2955C9.9374 15.8725 10.8393 14.9706 11.2623 13.8223H38.7377C39.1607 14.9705 40.0626 15.8725 41.2109 16.2955V33.7045Z" fill="#00245C"/>
<path d="M34.2285 30.2734H15.7715C14.9625 30.2734 14.3066 30.9293 14.3066 31.7383C14.3066 32.5473 14.9625 33.2031 15.7715 33.2031H34.2285C35.0375 33.2031 35.6934 32.5473 35.6934 31.7383C35.6934 30.9293 35.0375 30.2734 34.2285 30.2734Z" fill="#00245C"/>
<path d="M22.0511 24.4292L21.5767 24.7751C20.923 25.2517 20.7794 26.1681 21.256 26.8218C21.7325 27.4755 22.6489 27.619 23.3026 27.1425L25 25.905L26.6974 27.1424C27.3516 27.6191 28.2676 27.4751 28.744 26.8217C29.2206 26.168 29.077 25.2517 28.4233 24.775L27.9489 24.4291C28.8363 23.6245 29.3945 22.4632 29.3945 21.1738C29.3945 18.7507 27.4231 16.7793 25 16.7793C22.5769 16.7793 20.6055 18.7507 20.6055 21.1738C20.6055 22.4632 21.1637 23.6246 22.0511 24.4292ZM25 19.709C25.8077 19.709 26.4648 20.3661 26.4648 21.1738C26.4648 21.9815 25.8077 22.6387 25 22.6387C24.1923 22.6387 23.5352 21.9815 23.5352 21.1738C23.5352 20.3661 24.1923 19.709 25 19.709Z" fill="#00245C"/>
</svg>
